<svg viewBox="0 0 500.000000 500.000000">

	<g transform="translate(0.000000,500.000000) scale(0.100000,-0.100000)"
		fill="currentColor">
		<path
			d="M2240 3945 c-58 -7 -140 -21 -184 -30 -78 -16 -253 -72 -293 -93 -17
-10 -31 -4 -89 35 -115 77 -149 87 -299 88 -78 0 -152 -6 -185 -14 -246 -62
-374 -276 -315 -529 32 -134 125 -261 227 -311 27 -12 50 -26 53 -31 2 -4 -14
-20 -38 -35 -112 -74 -310 -264 -416 -400 -134 -172 -209 -311 -281 -520 -33
-97 -42 -139 -47 -220 -28 -481 224 -898 610 -1010 150 -43 211 -46 1157 -52
1033 -5 1691 6 1810 32 296 65 506 248 618 538 63 162 77 237 77 422 -1 158
-1 162 -39 280 -67 209 -168 388 -336 594 -86 105 -272 288 -339 333 -46 31
-48 43 -10 59 18 7 65 45 104 85 58 57 79 87 106 150 32 75 34 85 34 199 0
112 -2 124 -29 179 -16 32 -54 84 -85 115 -92 92 -185 127 -358 138 -152 9
-221 -13 -359 -116 -29 -21 -34 -22 -55 -8 -43 27 -252 89 -369 109 -150 25
-518 32 -670 13z m-741 -171 c31 -8 74 -28 96 -43 44 -30 115 -117 115 -142 0
-9 -25 -33 -55 -54 -114 -78 -219 -216 -259 -340 -9 -27 -19 -56 -21 -64 -4
-9 -9 -10 -18 -4 -6 5 -28 16 -47 23 -62 24 -149 91 -179 139 -43 69 -54 114
-48 196 11 142 100 253 234 290 66 18 116 18 182 -1z m2284 -23 c109 -52 171
-153 171 -281 1 -62 -4 -85 -27 -132 -32 -64 -117 -149 -184 -181 -24 -12 -43
-25 -43 -29 0 -4 -8 -8 -18 -8 -14 0 -22 13 -31 51 -33 128 -156 295 -271 369
-55 35 -56 39 -36 78 33 63 140 142 221 163 56 15 152 2 218 -30z m-1865
-1297 c15 -10 22 -25 22 -48 0 -39 -15 -56 -52 -56 -63 0 -91 80 -38 107 33
16 41 16 68 -3z m1324 -1 c38 -34 11 -103 -40 -103 -32 0 -62 27 -62 54 0 26
9 39 35 54 28 16 45 15 67 -5z m-603 -413 c41 -19 43 -22 39 -57 -4 -32 0 -40
35 -72 106 -95 117 -265 23 -326 -43 -28 -110 -23 -161 13 -42 30 -44 30 -60
12 -10 -11 -37 -27 -60 -36 -39 -14 -48 -15 -86 -2 -49 16 -76 48 -90 104 -19
83 15 180 84 241 27 24 33 35 30 59 -5 33 14 55 62 72 50 17 136 14 184 -8z
m816 -122 c54 -28 76 -77 56 -126 -24 -57 -127 -98 -215 -87 -38 6 -58 15 -83
40 -39 39 -41 60 -10 105 50 76 172 108 252 68z m-1645 -23 c82 -55 86 -143 8
-176 -47 -20 -155 -17 -198 5 -74 39 -106 97 -80 145 23 45 69 62 150 59 64
-3 82 -7 120 -33z" />
	</g>
</svg>
